<?xml version="1.0" encoding="UTF-8"?><svg id="Laag_1" xmlns="http://www.w3.org/2000/svg" viewBox="0 0 841.89 595.28"><defs><style>.cls-1{fill:none;stroke:#be1622;stroke-linecap:round;stroke-width:18px;}.cls-1,.cls-2{stroke-miterlimit:10;}.cls-3{font-family:Cubano-Regular, Cubano;font-size:98.94px;}.cls-3,.cls-2,.cls-4{fill:#1d1d1b;}.cls-2{stroke:#1d1d1b;stroke-width:1.08px;}</style></defs><text class="cls-3" transform="translate(224.08 244.79) rotate(-59.93)"><tspan x="0" y="0">E</tspan></text><text class="cls-3" transform="translate(249.84 199.89) rotate(-43.28)"><tspan x="0" y="0">l</tspan></text><text class="cls-3" transform="translate(286.21 167.15) rotate(-31.68)"><tspan x="0" y="0">i</tspan></text><text class="cls-3" transform="translate(306.03 152.61) rotate(-18.72)"><tspan x="0" y="0">t</tspan></text><text class="cls-3" transform="translate(358.53 134.7) rotate(-2.97)"><tspan x="0" y="0">e</tspan></text><text class="cls-3" transform="translate(411.54 133.04) rotate(8.12)"><tspan x="0" y="0"> </tspan></text><text class="cls-3" transform="translate(439.51 135.64) rotate(18.66)"><tspan x="0" y="0">G</tspan></text><text class="cls-3" transform="translate(491.66 152.87) rotate(31.97)"><tspan x="0" y="0">y</tspan></text><text class="cls-3" transform="translate(540.68 180.97) rotate(48.73)"><tspan x="0" y="0">m</tspan></text><circle class="cls-1" cx="406.18" cy="337.52" r="172.57"/><path class="cls-4" d="m193.72,366.63c12.72,6.82,33.5.05,33.5.05,0,0-19.81,21.15-13.85,27.11,5.96,5.96,21.1-4.35,21.1-4.35,0,0-11.27,11.92,14.17-2.58,0,0-17.23,29.15-4.03,28.02,0,0,21.9-12.56,23.03-14.33,0,0-9.93,32.8,2.09,32.16,0,0,9.23-9.02,11.6-14.17,0,0-1.29,12.02,6.66-3.22,0,0,1.29,24.48,9.45,21.69,8.16-2.79,9.02-16.32,9.02-16.32,0,0-.43,16.75,4.94-2.58,0,0,9.23,19.12,14.6,19.12,5.37,0,7.52-21.91,7.52-21.91,0,0,11.38,19.33,16.1,13.31,4.72-6.01,0-17.18,0-17.18,0,0,6.23,10.74,3.65-4.51,0,0,10.52,14.6,15.68,7.3,5.15-7.3-3.22-16.53-3.22-16.53,0,0,5.8,4.51,2.58-5.58,0,0,12.67,9.66,15.68,4.29s-7.3-9.02-7.3-9.02c0,0,12.02,3.01-5.15-12.24,0,0,1.45-10.84-8.05-14.71,0,0-.97-7.57-4.35-8.86,0,0,2.79-12.29-3.27-13.8h-24.05l-5.15-2.79c-10.95-12.88-17.61-15.89-17.61-15.89,0,0-7.94,1.72-9.02-21.04-1.07-22.76-25.34-37.36-25.34-37.36l-1.72,2.04s-38.33-7.94-112.41-53.04l-49.6-28.99s-14.49,26.41,14.49,28.02c0,0-10.31,5.15-2.01,7.01,0,0-25.85-4.91,7.97,21.98l9.98,8.7s-34.79-13.53-25.45.48c9.34,14.01,20.45,16.27,20.45,16.27,0,0-11.92,1.45,4.19,6.92,0,0-23.19-1.61-13.85,5.15s26.89,18.84,26.89,18.84c0,0-27.06-2.58-14.33,9.34,12.72,11.92,19,11.11,19,11.11,0,0-10.84,3.22,3.49,7.14,0,0-35.22,6.87,30.17,26.52l3.06.81s-48.31,5.31-12.88,17.23c0,0,9.18.97,16.1,0"/><path class="cls-4" d="m609.67,366.52c-12.72,6.82-33.5.05-33.5.05,0,0,19.81,21.15,13.85,27.11-5.96,5.96-21.1-4.35-21.1-4.35,0,0,11.27,11.92-14.17-2.58,0,0,17.23,29.15,4.03,28.02,0,0-21.9-12.56-23.03-14.33,0,0,9.93,32.8-2.09,32.16,0,0-9.23-9.02-11.6-14.17,0,0,1.29,12.02-6.66-3.22,0,0-1.29,24.48-9.45,21.69s-9.02-16.32-9.02-16.32c0,0,.43,16.75-4.94-2.58,0,0-9.23,19.12-14.6,19.12-5.37,0-7.52-21.91-7.52-21.91,0,0-11.38,19.33-16.1,13.31-4.72-6.01,0-17.18,0-17.18,0,0-6.23,10.74-3.65-4.51,0,0-10.52,14.6-15.68,7.3-5.15-7.3,3.22-16.53,3.22-16.53,0,0-5.8,4.51-2.58-5.58,0,0-12.67,9.66-15.68,4.29-3.01-5.37,7.3-9.02,7.3-9.02,0,0-12.02,3.01,5.15-12.24,0,0-1.45-10.84,8.05-14.71,0,0,.97-7.57,4.35-8.86,0,0-2.79-12.29,3.27-13.8h24.05s5.15-2.79,5.15-2.79c10.95-12.88,17.61-15.89,17.61-15.89,0,0,7.94,1.72,9.02-21.04s25.34-37.36,25.34-37.36l1.72,2.04s38.33-7.94,112.41-53.04l49.6-28.99s14.49,26.41-14.49,28.02c0,0,10.31,5.15,2.01,7.01,0,0,25.85-4.91-7.97,21.98l-9.98,8.7s34.79-13.53,25.45.48c-9.34,14.01-20.45,16.27-20.45,16.27,0,0,11.92,1.45-4.19,6.92,0,0,23.19-1.61,13.85,5.15-9.34,6.76-26.89,18.84-26.89,18.84,0,0,27.06-2.58,14.33,9.34-12.72,11.92-19,11.11-19,11.11,0,0,10.84,3.22-3.49,7.14,0,0,35.22,6.87-30.17,26.52l-3.06.81s48.31,5.31,12.88,17.23c0,0-9.18.97-16.1,0"/><path class="cls-2" d="m357.57,204.2s23.67-7.16,22.98-12.25c-.68-5.09-8.39-4.56-14.07-3.06-5.68,1.5,1.03-22.98,1.5-27.24.46-4.26-2.21-6.08-5.53-4.3,0,0-8.67-5.81-8.82,9.23,0,0-1.97,11.15-10.9,11.93-.91.08-1.68.69-1.96,1.56-.54,1.69-1.16,5.59-1.64,9.09-.93,6.76-3.16,13.31-6.79,19.08-.04.06-.08.13-.12.19-.49.77-.84,1.6-1,2.5-.86,4.77-3.97,20.87-7.51,24.75,0,0-4.68,14.76-1.06,24.57,0,0,1.15,28.4,9.08,41.69,7.93,13.29,11.13,21.43,11.13,21.43,0,0-2.72,17.04.24,26.96,2.96,9.91,3.58,24.44,9.11,33.55,5.52,9.11,7.86,24.71,7.86,24.71,0,0,3.86,7.12,4.21,9.33.86,5.41.07,22.65,1.18,26.8l.35,1.3c.77,2.86.81,5.84.47,8.78-.47,4.09,1.51,9.57,14.72,10.93,21.73,2.25,36.48,4.18,45.68.38,9.2-3.8,19.11,2.09,22.72-21.88,0,0-7.1-15.3-9.43-29.65-2.33-14.35.75-15.25.4-21.24-.33-5.6,1.98-21.01,1.98-21.01,0,0,4.54-9.98,5.02-14.1.49-4.12-1.73-11.84,19.53-24.34,21.26-12.5,28.32-50.79,28.32-50.79,0,0-11.81-30.03-44.72-47.79,0,0-18.7-13.93-26.07-14.68-.86-.09-1.71.28-2.29.92-1.37,1.52-4.88,4.46-9.99,1.81-1.48-.77-3.21-1.05-4.77-.46-2,.75-3.02,2.46,4.36,6.29,0,0,2.32,2.7,10.49,7.68,0,0,3.52,4.77,2.07,14.53,0,0,3.6,2.59,8.43-4.11,0,0,6.02-1.12,20.33,17.63,14.31,18.75,11.32,22.61,11.32,22.61,0,0,2.38,7.1-14.2,6.65-1.49-.04-6.18,2.12-8.5,3.44-4.87,2.76-8.69,12.35-11.26,14.29-3.26,2.45-11.56,7.47-6.11-11.52,5.25-18.3,4.68-15.74,3.83-22.86,0,0-.58-5.14-2.08-10.99-.8-3.12-1.82-5.74-3.69-8.84-2.2-3.65-3.73-8.96-11.14-8.21,0,0-15.35-.88-22.57,5.59-7.23,6.47-8.52,13.32-8.52,13.32,0,0-4.99,19.67-4.13,23.77s9.54,14.91,4.03,18.3c0,0-7.1-17.08-21.91-22.91,0,0-.38-20.15-10.62-27.15,0,0,7.47-33.12,5.26-37.81,0,0-1.79-16.17,4.81-18.39Z"/></svg>